<?xml version="1.0" standalone="no"?>
<!DOCTYPE svg PUBLIC "-//W3C//DTD SVG 20010904//EN"
 "http://www.w3.org/TR/2001/REC-SVG-20010904/DTD/svg10.dtd">
<svg version="1.0" xmlns="http://www.w3.org/2000/svg"
 width="160.000000pt" height="160.000000pt" viewBox="0 0 160.000000 160.000000"
 preserveAspectRatio="xMidYMid meet">

<g transform="translate(0.000000,160.000000) scale(0.100000,-0.100000)"
fill="#000000" stroke="none">
<path d="M700 860 c0 -33 4 -60 10 -60 6 0 10 27 10 60 0 33 -4 60 -10 60 -6
0 -10 -27 -10 -60z"/>
<path d="M805 910 c-3 -5 -1 -10 4 -10 6 0 11 5 11 10 0 6 -2 10 -4 10 -3 0
-8 -4 -11 -10z"/>
<path d="M912 900 c-10 -26 -3 -100 9 -100 5 0 9 16 9 35 0 21 5 35 13 35 9 0
9 2 -1 8 -7 5 -10 16 -6 25 3 10 1 17 -5 17 -7 0 -15 -9 -19 -20z"/>
<path d="M380 867 c0 -24 5 -48 12 -55 17 -17 65 -15 72 4 10 25 7 94 -4 94
-5 0 -10 -18 -10 -40 0 -28 -5 -43 -16 -47 -21 -8 -34 13 -34 55 0 17 -4 32
-10 32 -5 0 -10 -19 -10 -43z"/>
<path d="M1035 883 c-13 -24 -7 -80 9 -86 7 -3 19 -1 27 4 11 7 11 9 -3 9 -12
0 -18 8 -18 25 0 14 5 25 11 25 8 0 9 4 0 13 -6 8 -8 17 -4 20 3 4 2 7 -3 7
-5 0 -14 -8 -19 -17z"/>
<path d="M554 825 c0 -39 4 -55 13 -55 7 0 13 7 13 15 0 8 8 15 19 15 22 0 34
36 20 62 -6 11 -21 18 -37 18 -26 0 -27 -2 -28 -55z m49 29 c3 -4 1 -16 -5
-27 -9 -18 -11 -19 -20 -4 -13 25 6 49 25 31z"/>
<path d="M805 840 c0 -22 3 -40 7 -40 5 0 8 18 8 40 0 22 -3 40 -8 40 -4 0 -7
-18 -7 -40z"/>
<path d="M1156 872 c-4 -6 0 -25 9 -42 11 -22 13 -35 5 -49 -5 -11 -6 -22 -2
-25 11 -7 55 99 49 116 -3 7 -10 0 -17 -17 l-12 -30 -13 29 c-7 17 -15 24 -19
18z"/>
</g>
</svg>
